<svg class="icon icon-cart-empty" aria-hidden="true" focusable="false" role="presentation" xmlns="http://www.w3.org/2000/svg" viewBox="0 0 40 40" fill="none" style="transform: translate(10px, 10px);">
 <path d="M19.885 3.673a.638.638 0 00-.5-.28L6.98 2.846a.646.646 0 00-.67.627.65.65 0 00.614.685l11.567.51-2.274 7.26H6.097L4.266 1.742a.653.653 0 00-.396-.493L.877.045a.638.638 0 00-.832.371.662.662 0 00.362.852l2.663 1.07 1.86 10.365a.646.646 0 00.632.538h.308l-.704 2.003a.557.557 0 00.065.5c.1.146.264.232.438.232h.494a1.984 1.984 0 00-.494 1.314c0 1.086.863 1.97 1.925 1.97 1.061 0 1.925-.884 1.925-1.97 0-.505-.188-.965-.494-1.314h4.197a1.983 1.983 0 00-.495 1.314c0 1.086.864 1.97 1.925 1.97 1.062 0 1.926-.884 1.926-1.97 0-.505-.188-.965-.495-1.314h.601a.541.541 0 00.535-.547.541.541 0 00-.535-.547H6.43l.578-1.641h9.677c.28 0 .526-.185.611-.456l2.674-8.536a.668.668 0 00-.084-.576zM7.594 18.165a.867.867 0 01-.856-.875c0-.483.384-.876.856-.876s.855.393.855.876a.867.867 0 01-.855.875zm7.058 0a.867.867 0 01-.855-.875c0-.483.384-.876.855-.876.472 0 .856.393.856.876a.867.867 0 01-.856.875z" fill="#000" fill-rule="nonzero" class="fillmy"/>
</svg>