<svg viewBox="-1 0 82 35" xmlns="http://www.w3.org/2000/svg"><g fill="#000" fill-rule="nonzero"><path d="M14.784 11.293c-.546-.632-1.36-1.179-2.424-1.625C11.304 9.225 9.845 9 8.02 9c-1.823 0-3.283.225-4.338.668-1.062.446-1.884.99-2.442 1.62-.568.638-.922 1.293-1.054 1.948C.06 13.85 0 14.336 0 14.718v18.28h4.661v-17.67c0-.19.04-.421.116-.685.066-.23.208-.444.431-.651.235-.22.586-.415 1.044-.582.464-.17 1.09-.256 1.86-.256.736 0 1.33.086 1.761.253.424.165.75.365.969.59.213.222.342.441.398.672.066.272.099.524.099.749V33H16V14.718c0-.349-.06-.826-.186-1.458-.135-.668-.48-1.33-1.03-1.967zM22 1h5v5h-5zM31 1h5v5h-5zM34.043 10.587C32.766 9.534 30.733 9 28.001 9c-1.37 0-2.563.143-3.549.426-.998.288-1.84.69-2.504 1.193-.679.517-1.18 1.13-1.49 1.825A5.343 5.343 0 0020 14.637v1.467h4.674v-.435c0-.731.22-1.335.67-1.846.426-.484 1.32-.729 2.657-.729.687 0 1.26.072 1.7.214.43.139.772.318 1.02.534.24.21.41.436.502.67.099.25.15.495.15.727v.817c0 .273-.052.512-.154.708a2.948 2.948 0 01-.405.599 1.53 1.53 0 01-.427.351 18.49 18.49 0 01-.415.212c-.11.03-.335.101-.885.302a132.853 132.853 0 01-3.607 1.243c-.695.23-1.308.43-1.85.604-1.158.405-2.064 1.1-2.693 2.07A5.775 5.775 0 0020 25.343v1.977c0 .587.104 1.215.308 1.866.214.686.636 1.322 1.254 1.889.605.554 1.434 1.02 2.465 1.383 1.022.36 2.36.542 3.973.542s2.95-.182 3.972-.542c1.03-.362 1.86-.828 2.465-1.383.617-.567 1.04-1.203 1.254-1.889A6.316 6.316 0 0036 27.32V14.637c0-1.617-.657-2.98-1.957-4.05zm-6.042 18.32c-1.319 0-2.212-.223-2.655-.664-.446-.444-.672-1.159-.672-2.127 0-.462.091-.843.27-1.13.197-.318.415-.581.632-.77.289-.228.596-.41.895-.53.465-.17.969-.341 1.494-.511.444-.143.934-.31 1.458-.5.495-.177.976-.342 1.41-.483.173-.047.353-.119.538-.215v4.14c0 .914-.23 1.618-.68 2.091-.443.464-1.347.699-2.69.699zM55.045 10.587C53.77 9.534 51.735 9 49.002 9c-1.37 0-2.563.143-3.549.426-.999.288-1.841.69-2.503 1.193-.68.516-1.18 1.13-1.49 1.825a5.35 5.35 0 00-.46 2.193v12.726c0 .558.104 1.171.308 1.824.213.687.636 1.322 1.254 1.888.604.554 1.434 1.02 2.465 1.383 1.023.36 2.36.542 3.974.542 1.614 0 2.95-.182 3.973-.542 1.031-.362 1.86-.828 2.465-1.383.618-.567 1.04-1.202 1.253-1.888.204-.654.308-1.268.308-1.824v-1.681h-4.63v.435c0 .915-.229 1.618-.68 2.092-.443.463-1.347.698-2.69.698-1.32 0-2.213-.223-2.656-.664-.446-.443-.671-1.158-.671-2.126V15.67c0-.73.22-1.335.67-1.845.425-.484 1.32-.729 2.655-.729.688 0 1.26.072 1.702.214.428.138.77.317 1.019.533.24.21.41.436.502.67.098.252.148.497.148.728v.865H57v-1.467c.003-1.618-.654-2.98-1.954-4.051zM75.808 20.988c.748-.557 1.302-1.194 1.649-1.9a5.56 5.56 0 00.58-2.477V8.989H73.35v7.002c0 .461-.038.687-.22 1.101-.154.351-.613.644-1.278.873-.14.056-5.09 1.779-5.213 1.823V0H62v33h4.64v-7.356c0-.34.077-.606.236-.807.193-.243.375-.371.592-.516.285-.18.987-.477.987-.477.343-.142 2.75-.945 3.023-1.038L75.04 33H80l-4.192-12.012z" class="fillmy"/></g></svg>